<svg width="531.001" height="96.1" viewBox="0 0 531.001 96.1" xmlns="http://www.w3.org/2000/svg"><g id="svgGroup" stroke-linecap="round" fill-rule="evenodd" font-size="9pt" stroke="#000" stroke-width="0,25mm" fill="#000" style="stroke:#000;stroke-width:0,25mm;fill:#000"><path d="M 249.801 73.7 L 249.801 72.7 A 11.677 11.677 0 0 1 247.528 71.544 A 9.094 9.094 0 0 1 245.651 69.9 A 6.234 6.234 0 0 1 244.288 67.084 A 8.992 8.992 0 0 1 244.101 65.2 A 8.809 8.809 0 0 1 244.401 62.831 A 6.186 6.186 0 0 1 246.701 59.45 Q 249.301 57.5 253.401 56.5 L 253.401 56 Q 248.701 53.8 246.101 49.8 A 15.907 15.907 0 0 1 243.767 43.624 A 21.178 21.178 0 0 1 243.501 40.2 Q 243.501 36.1 245.001 32.75 Q 246.501 29.4 249.251 27.05 A 18.793 18.793 0 0 1 253.772 24.214 A 22.857 22.857 0 0 1 255.851 23.4 A 24.344 24.344 0 0 1 260.757 22.315 A 31.512 31.512 0 0 1 264.501 22.1 A 29.451 29.451 0 0 1 269.89 22.573 A 23.268 23.268 0 0 1 274.201 23.8 L 274.201 22.1 A 8.726 8.726 0 0 1 274.515 19.707 A 6.879 6.879 0 0 1 275.901 17.1 Q 277.421 15.311 280.382 15.122 A 11.297 11.297 0 0 1 281.101 15.1 L 290.501 15.1 L 290.501 23.7 L 278.501 23.7 L 278.501 26.1 Q 281.901 28.4 283.701 31.95 A 16.394 16.394 0 0 1 285.248 36.837 A 21.524 21.524 0 0 1 285.501 40.2 Q 285.501 44.3 284.001 47.65 Q 282.501 51 279.751 53.35 Q 277.001 55.7 273.151 56.95 A 25.155 25.155 0 0 1 268.278 57.99 A 32.721 32.721 0 0 1 264.501 58.2 A 34.274 34.274 0 0 1 260.015 57.917 A 29.328 29.328 0 0 1 258.101 57.6 A 11.584 11.584 0 0 0 255.851 58.499 A 14.568 14.568 0 0 0 254.501 59.3 A 4.25 4.25 0 0 0 253.369 60.375 Q 252.735 61.272 252.702 62.471 A 4.805 4.805 0 0 0 252.701 62.6 Q 252.701 65 255.001 65.6 Q 256.739 66.054 259.106 66.164 A 34.162 34.162 0 0 0 260.701 66.2 L 272.301 66.2 A 43.345 43.345 0 0 1 277.555 66.495 Q 283.958 67.28 287.301 70.15 A 12.82 12.82 0 0 1 291.873 79.515 A 17.045 17.045 0 0 1 291.901 80.5 A 14.949 14.949 0 0 1 291.073 85.606 Q 289.545 89.836 285.201 92.3 Q 278.501 96.1 264.801 96.1 A 87.694 87.694 0 0 1 260.078 95.981 Q 257.833 95.859 255.9 95.615 A 40.545 40.545 0 0 1 253.551 95.25 A 33.775 33.775 0 0 1 250.377 94.507 Q 248.849 94.065 247.58 93.509 A 16.237 16.237 0 0 1 246.151 92.8 A 12.695 12.695 0 0 1 244.099 91.385 Q 242.793 90.266 242.051 88.9 A 10.351 10.351 0 0 1 240.852 84.854 A 12.669 12.669 0 0 1 240.801 83.7 Q 240.801 79.5 243.151 77.15 A 11.326 11.326 0 0 1 245.885 75.167 Q 247.583 74.267 249.801 73.7 Z M 511.801 44.9 L 520.001 23.3 L 531.001 23.3 L 506.001 84.9 A 22.942 22.942 0 0 1 504.325 88.299 Q 503.216 90.124 501.855 91.444 A 12.755 12.755 0 0 1 500.751 92.4 A 10.734 10.734 0 0 1 497.431 94.087 Q 495.919 94.569 494.08 94.765 A 25.276 25.276 0 0 1 491.401 94.9 L 482.701 94.9 L 482.701 86.1 L 494.901 86.1 L 499.601 74.2 L 478.801 23.3 L 490.201 23.3 L 498.401 44.9 L 504.801 62.6 L 505.401 62.6 L 511.801 44.9 Z M 120.801 66.2 L 127.501 60.2 Q 130.901 63.9 135.151 65.85 Q 139.401 67.8 145.201 67.8 A 25.54 25.54 0 0 0 148.602 67.587 Q 151.618 67.181 153.751 66 A 6.503 6.503 0 0 0 155.778 64.309 Q 157.001 62.731 157.001 60.4 Q 157.001 58.956 156.512 57.919 A 4.178 4.178 0 0 0 156.401 57.7 Q 155.801 56.6 154.701 55.9 A 8.656 8.656 0 0 0 153.148 55.126 A 10.817 10.817 0 0 0 152.151 54.8 Q 150.701 54.4 149.101 54.2 L 140.901 52.9 A 41.21 41.21 0 0 1 135.381 51.765 A 45.61 45.61 0 0 1 134.801 51.6 Q 131.701 50.7 129.251 49.05 Q 126.801 47.4 125.251 44.8 A 10.332 10.332 0 0 1 124.09 41.857 Q 123.701 40.204 123.701 38.2 A 16.355 16.355 0 0 1 124.482 33.013 A 13.07 13.07 0 0 1 129.751 26.2 A 22.132 22.132 0 0 1 136.515 23.19 Q 139.448 22.407 142.91 22.186 A 43.944 43.944 0 0 1 145.701 22.1 A 40.524 40.524 0 0 1 151.578 22.504 Q 154.727 22.966 157.397 23.956 A 24.042 24.042 0 0 1 158.151 24.25 Q 163.401 26.4 166.901 30.2 L 160.801 36.6 A 14.911 14.911 0 0 0 158.736 34.663 Q 157.673 33.83 156.353 33.049 A 29.147 29.147 0 0 0 155.101 32.35 Q 152.293 30.871 148.104 30.514 A 33.062 33.062 0 0 0 145.301 30.4 A 25.767 25.767 0 0 0 141.596 30.643 Q 134.401 31.694 134.401 37.3 A 7.186 7.186 0 0 0 134.587 38.994 A 4.194 4.194 0 0 0 136.751 41.85 A 14.069 14.069 0 0 0 139.663 42.987 A 18.933 18.933 0 0 0 142.301 43.5 L 150.501 44.8 Q 153.601 45.3 156.651 46.1 A 18.161 18.161 0 0 1 161.331 48.032 A 16.832 16.832 0 0 1 162.151 48.55 Q 164.601 50.2 166.151 52.8 A 10.332 10.332 0 0 1 167.312 55.744 Q 167.701 57.396 167.701 59.4 Q 167.701 67.2 161.651 71.65 A 20.896 20.896 0 0 1 155.107 74.807 Q 152.224 75.656 148.773 75.947 A 44.823 44.823 0 0 1 145.001 76.1 A 43.916 43.916 0 0 1 138.331 75.62 Q 134.651 75.054 131.55 73.821 A 26.16 26.16 0 0 1 130.551 73.4 Q 124.501 70.7 120.801 66.2 Z M 314.201 74.9 L 303.301 74.9 L 303.301 23.3 L 314.201 23.3 L 314.201 32.1 L 314.701 32.1 Q 315.501 30.1 316.751 28.25 Q 318.001 26.4 319.801 25.05 A 13.933 13.933 0 0 1 322.663 23.409 A 16.848 16.848 0 0 1 324.001 22.9 Q 326.401 22.1 329.601 22.1 Q 337.401 22.1 342.201 27.2 A 16.585 16.585 0 0 1 345.981 33.948 Q 347.001 37.367 347.001 41.7 L 347.001 74.9 L 336.101 74.9 L 336.101 43.3 A 20.57 20.57 0 0 0 335.625 38.658 Q 334.154 32.335 328.142 31.233 A 15.211 15.211 0 0 0 325.401 31 Q 323.301 31 321.301 31.55 A 12.038 12.038 0 0 0 318.262 32.838 A 11.135 11.135 0 0 0 317.701 33.2 Q 316.101 34.3 315.151 36 Q 314.201 37.7 314.201 39.9 L 314.201 74.9 Z M 422.801 74.9 L 422.801 0.9 L 433.701 0.9 L 433.701 32.1 L 434.301 32.1 Q 436.601 27.4 440.401 24.75 A 14.33 14.33 0 0 1 445.718 22.509 A 20.339 20.339 0 0 1 449.901 22.1 A 19.594 19.594 0 0 1 456.917 23.309 A 17.339 17.339 0 0 1 464.401 28.9 Q 469.801 35.7 469.801 49.1 Q 469.801 62.5 464.401 69.3 A 17.276 17.276 0 0 1 451.847 76.019 A 22.835 22.835 0 0 1 449.901 76.1 A 20.224 20.224 0 0 1 445.593 75.665 A 14.284 14.284 0 0 1 440.401 73.45 A 17.914 17.914 0 0 1 435.544 68.322 A 22.466 22.466 0 0 1 434.301 66.1 L 433.701 66.1 L 433.701 74.9 L 422.801 74.9 Z M 36.101 74.9 L 36.101 66.1 L 35.501 66.1 Q 33.201 70.8 29.401 73.45 A 14.33 14.33 0 0 1 24.083 75.692 A 20.339 20.339 0 0 1 19.901 76.1 A 19.594 19.594 0 0 1 12.885 74.891 A 17.339 17.339 0 0 1 5.401 69.3 Q 0.001 62.5 0.001 49.1 Q 0.001 35.7 5.401 28.9 A 17.276 17.276 0 0 1 17.954 22.182 A 22.835 22.835 0 0 1 19.901 22.1 A 20.224 20.224 0 0 1 24.209 22.535 A 14.284 14.284 0 0 1 29.401 24.75 Q 33.201 27.4 35.501 32.1 L 36.101 32.1 L 36.101 0.9 L 47.001 0.9 L 47.001 74.9 L 36.101 74.9 Z M 108.901 47.7 L 108.901 51.8 L 71.901 51.8 L 71.901 53.5 A 16.01 16.01 0 0 0 72.528 58.085 A 12.672 12.672 0 0 0 75.701 63.45 A 12.528 12.528 0 0 0 81.937 66.845 A 18.849 18.849 0 0 0 86.201 67.3 A 19.434 19.434 0 0 0 90.298 66.889 A 14.365 14.365 0 0 0 94.751 65.15 Q 98.301 63 100.501 59.4 L 107.301 65.4 A 19.11 19.11 0 0 1 102.976 70.478 A 25.536 25.536 0 0 1 99.351 73 A 21.822 21.822 0 0 1 93.129 75.373 Q 89.876 76.1 86.001 76.1 A 31.452 31.452 0 0 1 80.071 75.564 A 24.987 24.987 0 0 1 75.401 74.2 A 21.932 21.932 0 0 1 69.194 70.45 A 20.416 20.416 0 0 1 67.501 68.8 A 22.995 22.995 0 0 1 63.416 62.446 A 27.491 27.491 0 0 1 62.601 60.35 A 30.848 30.848 0 0 1 61.181 54.031 A 40.115 40.115 0 0 1 60.901 49.2 A 37.893 37.893 0 0 1 61.395 42.951 A 29.863 29.863 0 0 1 62.651 38 A 27.101 27.101 0 0 1 65.303 32.445 A 23.119 23.119 0 0 1 67.551 29.45 Q 70.701 25.9 75.201 24 Q 79.701 22.1 85.201 22.1 A 27.332 27.332 0 0 1 90.959 22.686 A 22.741 22.741 0 0 1 95.001 23.95 Q 99.401 25.8 102.501 29.2 A 22.901 22.901 0 0 1 106.758 36.004 A 26.756 26.756 0 0 1 107.251 37.3 A 29.115 29.115 0 0 1 108.706 43.9 A 36.085 36.085 0 0 1 108.901 47.7 Z M 185.001 74.9 L 185.001 66.1 L 202.601 66.1 L 202.601 32.1 L 185.001 32.1 L 185.001 23.3 L 213.501 23.3 L 213.501 66.1 L 230.001 66.1 L 230.001 74.9 L 185.001 74.9 Z M 458.301 53.3 L 458.301 44.9 Q 458.301 38.6 454.951 34.8 A 10.864 10.864 0 0 0 448.997 31.371 A 16.469 16.469 0 0 0 445.401 31 A 17.024 17.024 0 0 0 442.174 31.297 A 14.888 14.888 0 0 0 440.901 31.6 A 11.743 11.743 0 0 0 438.249 32.709 A 10.42 10.42 0 0 0 437.201 33.4 Q 435.601 34.6 434.651 36.35 A 7.653 7.653 0 0 0 433.857 38.657 A 10.358 10.358 0 0 0 433.701 40.5 L 433.701 57.7 Q 433.701 60.1 434.651 61.85 Q 435.601 63.6 437.201 64.8 A 10.96 10.96 0 0 0 440.131 66.354 A 12.841 12.841 0 0 0 440.901 66.6 A 15.804 15.804 0 0 0 444.365 67.171 A 18.447 18.447 0 0 0 445.401 67.2 A 16.161 16.161 0 0 0 449.321 66.752 A 10.788 10.788 0 0 0 454.951 63.4 Q 458.301 59.6 458.301 53.3 Z M 36.101 57.7 L 36.101 40.5 Q 36.101 38.1 35.151 36.35 Q 34.201 34.6 32.601 33.4 A 10.96 10.96 0 0 0 29.671 31.846 A 12.841 12.841 0 0 0 28.901 31.6 A 15.804 15.804 0 0 0 25.436 31.029 A 18.447 18.447 0 0 0 24.401 31 A 16.161 16.161 0 0 0 20.48 31.448 A 10.788 10.788 0 0 0 14.851 34.8 Q 11.501 38.6 11.501 44.9 L 11.501 53.3 Q 11.501 59.6 14.851 63.4 A 10.864 10.864 0 0 0 20.804 66.829 A 16.469 16.469 0 0 0 24.401 67.2 A 17.024 17.024 0 0 0 27.627 66.904 A 14.888 14.888 0 0 0 28.901 66.6 A 11.743 11.743 0 0 0 31.552 65.492 A 10.42 10.42 0 0 0 32.601 64.8 Q 34.201 63.6 35.151 61.85 A 7.653 7.653 0 0 0 35.944 59.543 A 10.358 10.358 0 0 0 36.101 57.7 Z M 272.001 75.5 L 254.101 75.5 A 7.547 7.547 0 0 0 252.059 76.877 Q 250.301 78.579 250.301 81.3 Q 250.301 84.2 252.751 86.3 Q 255.201 88.4 260.901 88.4 L 269.001 88.4 A 33.449 33.449 0 0 0 272.422 88.237 Q 275.902 87.878 278.122 86.729 A 9.427 9.427 0 0 0 278.451 86.55 A 7.197 7.197 0 0 0 280.267 85.121 Q 281.678 83.55 281.7 81.275 A 7.484 7.484 0 0 0 281.701 81.2 A 5.165 5.165 0 0 0 281.254 79.026 Q 280.765 77.957 279.74 77.156 A 6.382 6.382 0 0 0 279.601 77.05 Q 277.904 75.798 273.99 75.557 A 32.496 32.496 0 0 0 272.001 75.5 Z M 71.901 44.1 L 71.901 44.8 L 97.801 44.8 L 97.801 43.8 A 17.474 17.474 0 0 0 97.326 39.61 A 12.179 12.179 0 0 0 94.351 34.05 A 11.47 11.47 0 0 0 87.259 30.528 A 16.003 16.003 0 0 0 85.201 30.4 A 14.738 14.738 0 0 0 81.588 30.831 A 12.99 12.99 0 0 0 79.851 31.4 Q 77.401 32.4 75.651 34.25 A 13.572 13.572 0 0 0 72.964 38.445 A 15.376 15.376 0 0 0 72.901 38.6 A 14.077 14.077 0 0 0 71.963 42.631 A 16.951 16.951 0 0 0 71.901 44.1 Z M 274.801 41.5 L 274.801 38.8 A 11.416 11.416 0 0 0 274.449 35.889 A 8.206 8.206 0 0 0 272.301 32.1 A 7.624 7.624 0 0 0 269.46 30.348 Q 268.252 29.91 266.757 29.728 A 18.766 18.766 0 0 0 264.501 29.6 Q 261.191 29.6 258.974 30.575 A 7.364 7.364 0 0 0 256.701 32.1 A 8.351 8.351 0 0 0 254.398 36.572 A 11.995 11.995 0 0 0 254.201 38.8 L 254.201 41.5 A 11.416 11.416 0 0 0 254.552 44.411 A 8.206 8.206 0 0 0 256.701 48.2 A 7.624 7.624 0 0 0 259.541 49.952 Q 260.749 50.391 262.244 50.572 A 18.766 18.766 0 0 0 264.501 50.7 Q 267.81 50.7 270.028 49.726 A 7.364 7.364 0 0 0 272.301 48.2 A 8.351 8.351 0 0 0 274.603 43.728 A 11.995 11.995 0 0 0 274.801 41.5 Z M 200.601 8 L 200.601 5.9 A 6.24 6.24 0 0 1 201.01 3.608 A 5.707 5.707 0 0 1 202.251 1.7 A 4.64 4.64 0 0 1 203.833 0.664 Q 205.438 0 208.001 0 A 16.44 16.44 0 0 1 209.941 0.106 Q 212.084 0.362 213.305 1.233 A 3.981 3.981 0 0 1 213.851 1.7 A 5.778 5.778 0 0 1 215.5 5.803 A 7.508 7.508 0 0 1 215.501 5.9 L 215.501 8 A 6.24 6.24 0 0 1 215.091 10.292 A 5.707 5.707 0 0 1 213.851 12.2 A 4.64 4.64 0 0 1 212.269 13.236 Q 210.663 13.9 208.101 13.9 Q 204.524 13.9 202.797 12.667 A 3.981 3.981 0 0 1 202.251 12.2 A 5.778 5.778 0 0 1 200.601 8.098 A 7.508 7.508 0 0 1 200.601 8 Z" vector-effect="non-scaling-stroke"/></g></svg>