<svg width="409.701" height="96.1" viewBox="0 0 409.701 96.1" xmlns="http://www.w3.org/2000/svg"><g id="svgGroup" stroke-linecap="round" fill-rule="evenodd" font-size="9pt" stroke="#000" stroke-width="0,25mm" fill="#000" style="stroke:#000;stroke-width:0,25mm;fill:#000"><path d="M 9 73.7 L 9 72.7 A 11.677 11.677 0 0 1 6.728 71.544 A 9.094 9.094 0 0 1 4.85 69.9 A 6.234 6.234 0 0 1 3.488 67.084 A 8.992 8.992 0 0 1 3.3 65.2 A 8.809 8.809 0 0 1 3.601 62.831 A 6.186 6.186 0 0 1 5.9 59.45 Q 8.5 57.5 12.6 56.5 L 12.6 56 Q 7.9 53.8 5.3 49.8 A 15.907 15.907 0 0 1 2.967 43.624 A 21.178 21.178 0 0 1 2.7 40.2 Q 2.7 36.1 4.2 32.75 Q 5.7 29.4 8.45 27.05 A 18.793 18.793 0 0 1 12.972 24.214 A 22.857 22.857 0 0 1 15.05 23.4 A 24.344 24.344 0 0 1 19.957 22.315 A 31.512 31.512 0 0 1 23.7 22.1 A 29.451 29.451 0 0 1 29.09 22.573 A 23.268 23.268 0 0 1 33.4 23.8 L 33.4 22.1 A 8.726 8.726 0 0 1 33.714 19.707 A 6.879 6.879 0 0 1 35.1 17.1 Q 36.621 15.311 39.582 15.122 A 11.297 11.297 0 0 1 40.3 15.1 L 49.7 15.1 L 49.7 23.7 L 37.7 23.7 L 37.7 26.1 Q 41.1 28.4 42.9 31.95 A 16.394 16.394 0 0 1 44.447 36.837 A 21.524 21.524 0 0 1 44.7 40.2 Q 44.7 44.3 43.2 47.65 Q 41.7 51 38.95 53.35 Q 36.2 55.7 32.35 56.95 A 25.155 25.155 0 0 1 27.478 57.99 A 32.721 32.721 0 0 1 23.7 58.2 A 34.274 34.274 0 0 1 19.214 57.917 A 29.328 29.328 0 0 1 17.3 57.6 A 11.584 11.584 0 0 0 15.05 58.499 A 14.568 14.568 0 0 0 13.7 59.3 A 4.25 4.25 0 0 0 12.569 60.375 Q 11.934 61.272 11.902 62.471 A 4.805 4.805 0 0 0 11.9 62.6 Q 11.9 65 14.2 65.6 Q 15.939 66.054 18.306 66.164 A 34.162 34.162 0 0 0 19.9 66.2 L 31.5 66.2 A 43.345 43.345 0 0 1 36.754 66.495 Q 43.158 67.28 46.5 70.15 A 12.82 12.82 0 0 1 51.072 79.515 A 17.045 17.045 0 0 1 51.1 80.5 A 14.949 14.949 0 0 1 50.272 85.606 Q 48.745 89.836 44.4 92.3 Q 37.7 96.1 24 96.1 A 87.694 87.694 0 0 1 19.278 95.981 Q 17.033 95.859 15.1 95.615 A 40.545 40.545 0 0 1 12.75 95.25 A 33.775 33.775 0 0 1 9.577 94.507 Q 8.049 94.065 6.78 93.509 A 16.237 16.237 0 0 1 5.35 92.8 A 12.695 12.695 0 0 1 3.299 91.385 Q 1.993 90.266 1.25 88.9 A 10.351 10.351 0 0 1 0.052 84.854 A 12.669 12.669 0 0 1 0 83.7 Q 0 79.5 2.35 77.15 A 11.326 11.326 0 0 1 5.084 75.167 Q 6.783 74.267 9 73.7 Z M 121.6 74.9 L 121.6 66.1 L 138.7 66.1 L 138.7 9.7 L 121.6 9.7 L 121.6 0.9 L 149.6 0.9 L 149.6 66.1 L 166.7 66.1 L 166.7 74.9 L 121.6 74.9 Z M 241.6 74.9 L 241.6 66.1 L 258.7 66.1 L 258.7 9.7 L 241.6 9.7 L 241.6 0.9 L 269.6 0.9 L 269.6 66.1 L 286.7 66.1 L 286.7 74.9 L 241.6 74.9 Z M 110 74.9 L 103.3 74.9 A 14.636 14.636 0 0 1 100.623 74.672 Q 97.875 74.16 96.25 72.5 A 9.881 9.881 0 0 1 93.86 68.384 A 13.344 13.344 0 0 1 93.4 66.2 L 92.9 66.2 Q 91.4 70.9 87.45 73.5 A 15.01 15.01 0 0 1 82.647 75.529 Q 80.707 75.993 78.456 76.08 A 27.329 27.329 0 0 1 77.4 76.1 A 24.394 24.394 0 0 1 72.136 75.564 Q 67.811 74.609 64.8 71.95 A 13.615 13.615 0 0 1 60.333 63.595 A 19.75 19.75 0 0 1 60.1 60.5 A 16.097 16.097 0 0 1 60.817 55.568 A 12.541 12.541 0 0 1 65.65 49.05 Q 70.905 45.31 81.494 45.111 A 64.244 64.244 0 0 1 82.7 45.1 L 92.6 45.1 L 92.6 41.1 A 14.269 14.269 0 0 0 92.031 36.881 Q 90.086 30.6 81.5 30.6 Q 76.5 30.6 73.4 32.55 Q 70.3 34.5 68.2 37.7 L 61.7 32.4 A 15.86 15.86 0 0 1 65.004 28.15 Q 66.744 26.532 69.1 25.15 Q 73.523 22.556 80.117 22.168 A 40.625 40.625 0 0 1 82.5 22.1 Q 89.975 22.1 95.007 24.835 A 17.441 17.441 0 0 1 97.9 26.8 A 15.185 15.185 0 0 1 103.007 35.486 A 23.138 23.138 0 0 1 103.5 40.4 L 103.5 66.3 L 110 66.3 L 110 74.9 Z M 348.1 47.7 L 348.1 51.8 L 311.1 51.8 L 311.1 53.5 A 16.01 16.01 0 0 0 311.728 58.085 A 12.672 12.672 0 0 0 314.9 63.45 A 12.528 12.528 0 0 0 321.137 66.845 A 18.849 18.849 0 0 0 325.4 67.3 A 19.434 19.434 0 0 0 329.498 66.889 A 14.365 14.365 0 0 0 333.95 65.15 Q 337.5 63 339.7 59.4 L 346.5 65.4 A 19.11 19.11 0 0 1 342.176 70.478 A 25.536 25.536 0 0 1 338.55 73 A 21.822 21.822 0 0 1 332.329 75.373 Q 329.075 76.1 325.2 76.1 A 31.452 31.452 0 0 1 319.271 75.564 A 24.987 24.987 0 0 1 314.6 74.2 A 21.932 21.932 0 0 1 308.394 70.45 A 20.416 20.416 0 0 1 306.7 68.8 A 22.995 22.995 0 0 1 302.616 62.446 A 27.491 27.491 0 0 1 301.8 60.35 A 30.848 30.848 0 0 1 300.381 54.031 A 40.115 40.115 0 0 1 300.1 49.2 A 37.893 37.893 0 0 1 300.594 42.951 A 29.863 29.863 0 0 1 301.85 38 A 27.101 27.101 0 0 1 304.503 32.445 A 23.119 23.119 0 0 1 306.75 29.45 Q 309.9 25.9 314.4 24 Q 318.9 22.1 324.4 22.1 A 27.332 27.332 0 0 1 330.159 22.686 A 22.741 22.741 0 0 1 334.2 23.95 Q 338.6 25.8 341.7 29.2 A 22.901 22.901 0 0 1 345.958 36.004 A 26.756 26.756 0 0 1 346.45 37.3 A 29.115 29.115 0 0 1 347.905 43.9 A 36.085 36.085 0 0 1 348.1 47.7 Z M 184.2 74.9 L 184.2 66.1 L 201.8 66.1 L 201.8 32.1 L 184.2 32.1 L 184.2 23.3 L 212.7 23.3 L 212.7 66.1 L 229.2 66.1 L 229.2 74.9 L 184.2 74.9 Z M 378.478 75.597 A 29.927 29.927 0 0 0 384.1 76.1 Q 390.7 76.1 395.55 73.65 Q 400.4 71.2 403.55 66.6 A 27.991 27.991 0 0 0 406.467 61.031 A 38.592 38.592 0 0 0 408.2 55.3 Q 408.997 51.741 409.371 47.645 A 84.294 84.294 0 0 0 409.7 40 A 96.052 96.052 0 0 0 409.7 39.867 Q 409.689 31.447 408.2 24.75 A 45.792 45.792 0 0 0 408.156 24.553 Q 406.654 17.933 403.55 13.4 Q 400.4 8.8 395.55 6.35 A 22.029 22.029 0 0 0 389.722 4.403 A 29.927 29.927 0 0 0 384.1 3.9 Q 377.5 3.9 372.65 6.35 Q 367.8 8.8 364.65 13.4 A 24.221 24.221 0 0 0 364.543 13.558 Q 362.889 16.014 361.699 19.074 A 38.929 38.929 0 0 0 360 24.75 Q 358.512 31.447 358.5 39.867 A 96.052 96.052 0 0 0 358.5 40 A 97.588 97.588 0 0 0 358.502 40.536 Q 358.524 44.541 358.876 48.129 A 59.395 59.395 0 0 0 360 55.3 A 45.319 45.319 0 0 0 360.022 55.398 Q 361.523 62.034 364.65 66.6 Q 367.8 71.2 372.65 73.65 A 22.029 22.029 0 0 0 378.478 75.597 Z M 398.2 46 L 398.2 34 Q 398.2 27.424 396.675 22.701 A 20.589 20.589 0 0 0 394.95 18.75 A 10.767 10.767 0 0 0 387.113 13.352 A 17.159 17.159 0 0 0 384.1 13.1 Q 380.3 13.1 377.6 14.55 Q 374.9 16 373.2 18.75 A 17.245 17.245 0 0 0 371.588 22.192 A 23.25 23.25 0 0 0 370.75 25.35 Q 370 29.2 370 34 L 370 46 Q 370 50.8 370.75 54.65 Q 371.5 58.5 373.2 61.25 A 11.738 11.738 0 0 0 376.467 64.754 A 11.347 11.347 0 0 0 377.6 65.45 Q 380.3 66.9 384.1 66.9 A 15.958 15.958 0 0 0 388.328 66.376 A 10.602 10.602 0 0 0 394.95 61.25 A 21.61 21.61 0 0 0 397.055 56.008 Q 398.2 51.7 398.2 46 Z M 31.2 75.5 L 13.3 75.5 A 7.547 7.547 0 0 0 11.258 76.877 Q 9.5 78.579 9.5 81.3 Q 9.5 84.2 11.95 86.3 Q 14.4 88.4 20.1 88.4 L 28.2 88.4 A 33.449 33.449 0 0 0 31.622 88.237 Q 35.102 87.878 37.322 86.729 A 9.427 9.427 0 0 0 37.65 86.55 A 7.197 7.197 0 0 0 39.467 85.121 Q 40.877 83.55 40.9 81.275 A 7.484 7.484 0 0 0 40.9 81.2 A 5.165 5.165 0 0 0 40.454 79.026 Q 39.965 77.957 38.939 77.156 A 6.382 6.382 0 0 0 38.8 77.05 Q 37.104 75.798 33.19 75.557 A 32.496 32.496 0 0 0 31.2 75.5 Z M 311.1 44.1 L 311.1 44.8 L 337 44.8 L 337 43.8 A 17.474 17.474 0 0 0 336.525 39.61 A 12.179 12.179 0 0 0 333.55 34.05 A 11.47 11.47 0 0 0 326.459 30.528 A 16.003 16.003 0 0 0 324.4 30.4 A 14.738 14.738 0 0 0 320.788 30.831 A 12.99 12.99 0 0 0 319.05 31.4 Q 316.6 32.4 314.85 34.25 A 13.572 13.572 0 0 0 312.164 38.445 A 15.376 15.376 0 0 0 312.1 38.6 A 14.077 14.077 0 0 0 311.163 42.631 A 16.951 16.951 0 0 0 311.1 44.1 Z M 34 41.5 L 34 38.8 A 11.416 11.416 0 0 0 33.649 35.889 A 8.206 8.206 0 0 0 31.5 32.1 A 7.624 7.624 0 0 0 28.66 30.348 Q 27.452 29.91 25.957 29.728 A 18.766 18.766 0 0 0 23.7 29.6 Q 20.391 29.6 18.173 30.575 A 7.364 7.364 0 0 0 15.9 32.1 A 8.351 8.351 0 0 0 13.598 36.572 A 11.995 11.995 0 0 0 13.4 38.8 L 13.4 41.5 A 11.416 11.416 0 0 0 13.752 44.411 A 8.206 8.206 0 0 0 15.9 48.2 A 7.624 7.624 0 0 0 18.741 49.952 Q 19.949 50.391 21.444 50.572 A 18.766 18.766 0 0 0 23.7 50.7 Q 27.01 50.7 29.227 49.726 A 7.364 7.364 0 0 0 31.5 48.2 A 8.351 8.351 0 0 0 33.803 43.728 A 11.995 11.995 0 0 0 34 41.5 Z M 92.6 59.5 L 92.6 52 L 82.9 52 A 29.325 29.325 0 0 0 78.89 52.25 Q 74.432 52.869 72.526 55.023 A 5.924 5.924 0 0 0 71.1 59.1 L 71.1 61.1 A 7.755 7.755 0 0 0 71.382 63.254 A 5.557 5.557 0 0 0 73.6 66.35 A 8.722 8.722 0 0 0 76.152 67.546 Q 78.025 68.1 80.5 68.1 Q 85.166 68.1 88.36 66.24 A 11.454 11.454 0 0 0 89.2 65.7 A 8.866 8.866 0 0 0 91.205 63.794 A 6.962 6.962 0 0 0 92.6 59.5 Z M 199.8 8 L 199.8 5.9 A 6.24 6.24 0 0 1 200.21 3.608 A 5.707 5.707 0 0 1 201.45 1.7 A 4.64 4.64 0 0 1 203.032 0.664 Q 204.638 0 207.2 0 A 16.44 16.44 0 0 1 209.141 0.106 Q 211.284 0.362 212.504 1.233 A 3.981 3.981 0 0 1 213.05 1.7 A 5.778 5.778 0 0 1 214.7 5.803 A 7.508 7.508 0 0 1 214.7 5.9 L 214.7 8 A 6.24 6.24 0 0 1 214.291 10.292 A 5.707 5.707 0 0 1 213.05 12.2 A 4.64 4.64 0 0 1 211.468 13.236 Q 209.863 13.9 207.3 13.9 Q 203.724 13.9 201.996 12.667 A 3.981 3.981 0 0 1 201.45 12.2 A 5.778 5.778 0 0 1 199.801 8.098 A 7.508 7.508 0 0 1 199.8 8 Z M 377.9 41.1 L 377.9 38.9 Q 377.9 36.9 379.25 35.5 A 3.713 3.713 0 0 1 380.498 34.675 Q 381.643 34.191 383.413 34.115 A 15.924 15.924 0 0 1 384.1 34.1 Q 387.022 34.1 388.446 35.076 A 3.252 3.252 0 0 1 388.95 35.5 Q 390.3 36.9 390.3 38.9 L 390.3 41.1 Q 390.3 43.1 388.95 44.5 A 3.713 3.713 0 0 1 387.702 45.326 Q 386.558 45.809 384.788 45.886 A 15.924 15.924 0 0 1 384.1 45.9 Q 381.178 45.9 379.755 44.924 A 3.252 3.252 0 0 1 379.25 44.5 Q 377.9 43.1 377.9 41.1 Z" vector-effect="non-scaling-stroke"/></g></svg>