<svg width="286.2" height="95.2" viewBox="0 0 286.2 95.2" xmlns="http://www.w3.org/2000/svg"><g id="svgGroup" stroke-linecap="round" fill-rule="evenodd" font-size="9pt" stroke="#000" stroke-width="0,25mm" fill="#000" style="stroke:#000;stroke-width:0,25mm;fill:#000"><path d="M 9 72.8 L 9 71.8 A 11.677 11.677 0 0 1 6.728 70.644 A 9.094 9.094 0 0 1 4.85 69 A 6.234 6.234 0 0 1 3.488 66.183 A 8.992 8.992 0 0 1 3.3 64.3 A 8.809 8.809 0 0 1 3.601 61.931 A 6.186 6.186 0 0 1 5.9 58.55 Q 8.5 56.6 12.6 55.6 L 12.6 55.1 Q 7.9 52.9 5.3 48.9 A 15.907 15.907 0 0 1 2.967 42.723 A 21.178 21.178 0 0 1 2.7 39.3 Q 2.7 35.2 4.2 31.85 Q 5.7 28.5 8.45 26.15 A 18.793 18.793 0 0 1 12.972 23.314 A 22.857 22.857 0 0 1 15.05 22.5 A 24.344 24.344 0 0 1 19.957 21.415 A 31.512 31.512 0 0 1 23.7 21.2 A 29.451 29.451 0 0 1 29.09 21.673 A 23.268 23.268 0 0 1 33.4 22.9 L 33.4 21.2 A 8.726 8.726 0 0 1 33.714 18.807 A 6.879 6.879 0 0 1 35.1 16.2 Q 36.621 14.411 39.582 14.222 A 11.297 11.297 0 0 1 40.3 14.2 L 49.7 14.2 L 49.7 22.8 L 37.7 22.8 L 37.7 25.2 Q 41.1 27.5 42.9 31.05 A 16.394 16.394 0 0 1 44.447 35.937 A 21.524 21.524 0 0 1 44.7 39.3 Q 44.7 43.4 43.2 46.75 Q 41.7 50.1 38.95 52.45 Q 36.2 54.8 32.35 56.05 A 25.155 25.155 0 0 1 27.478 57.09 A 32.721 32.721 0 0 1 23.7 57.3 A 34.274 34.274 0 0 1 19.214 57.016 A 29.328 29.328 0 0 1 17.3 56.7 A 11.584 11.584 0 0 0 15.05 57.598 A 14.568 14.568 0 0 0 13.7 58.4 A 4.25 4.25 0 0 0 12.569 59.475 Q 11.934 60.372 11.902 61.571 A 4.805 4.805 0 0 0 11.9 61.7 Q 11.9 64.1 14.2 64.7 Q 15.939 65.154 18.306 65.264 A 34.162 34.162 0 0 0 19.9 65.3 L 31.5 65.3 A 43.345 43.345 0 0 1 36.754 65.595 Q 43.158 66.38 46.5 69.25 A 12.82 12.82 0 0 1 51.072 78.615 A 17.045 17.045 0 0 1 51.1 79.6 A 14.949 14.949 0 0 1 50.272 84.706 Q 48.745 88.936 44.4 91.4 Q 37.7 95.2 24 95.2 A 87.694 87.694 0 0 1 19.278 95.08 Q 17.033 94.959 15.1 94.714 A 40.545 40.545 0 0 1 12.75 94.35 A 33.775 33.775 0 0 1 9.577 93.607 Q 8.049 93.165 6.78 92.609 A 16.237 16.237 0 0 1 5.35 91.9 A 12.695 12.695 0 0 1 3.299 90.484 Q 1.993 89.366 1.25 88 A 10.351 10.351 0 0 1 0.052 83.953 A 12.669 12.669 0 0 1 0 82.8 Q 0 78.6 2.35 76.25 A 11.326 11.326 0 0 1 5.084 74.267 Q 6.783 73.367 9 72.8 Z M 242.5 74 L 242.5 0 L 253.4 0 L 253.4 31.2 L 253.9 31.2 Q 254.7 29.2 255.95 27.35 Q 257.2 25.5 259 24.15 A 13.933 13.933 0 0 1 261.863 22.508 A 16.848 16.848 0 0 1 263.2 22 Q 265.6 21.2 268.8 21.2 Q 276.6 21.2 281.4 26.3 A 16.585 16.585 0 0 1 285.181 33.048 Q 286.2 36.467 286.2 40.8 L 286.2 74 L 275.3 74 L 275.3 42.4 A 20.57 20.57 0 0 0 274.824 37.758 Q 273.354 31.435 267.341 30.333 A 15.211 15.211 0 0 0 264.6 30.1 Q 262.5 30.1 260.5 30.65 A 12.038 12.038 0 0 0 257.462 31.938 A 11.135 11.135 0 0 0 256.9 32.3 Q 255.3 33.4 254.35 35.1 Q 253.4 36.8 253.4 39 L 253.4 74 L 242.5 74 Z M 151 44 L 159.2 22.4 L 170.2 22.4 L 145.2 84 A 22.942 22.942 0 0 1 143.525 87.398 Q 142.416 89.223 141.054 90.544 A 12.755 12.755 0 0 1 139.95 91.5 A 10.734 10.734 0 0 1 136.631 93.187 Q 135.118 93.669 133.28 93.865 A 25.276 25.276 0 0 1 130.6 94 L 121.9 94 L 121.9 85.2 L 134.1 85.2 L 138.8 73.3 L 118 22.4 L 129.4 22.4 L 137.6 44 L 144 61.7 L 144.6 61.7 L 151 44 Z M 61.6 74 L 61.6 65.2 L 78.7 65.2 L 78.7 8.8 L 61.6 8.8 L 61.6 0 L 89.6 0 L 89.6 65.2 L 106.7 65.2 L 106.7 74 L 61.6 74 Z M 182 94 L 182 22.4 L 192.9 22.4 L 192.9 31.2 L 193.5 31.2 Q 195.8 26.5 199.6 23.85 A 14.33 14.33 0 0 1 204.918 21.608 A 20.339 20.339 0 0 1 209.1 21.2 A 19.594 19.594 0 0 1 216.116 22.409 A 17.339 17.339 0 0 1 223.6 28 Q 229 34.8 229 48.2 Q 229 61.6 223.6 68.4 A 17.276 17.276 0 0 1 211.047 75.119 A 22.835 22.835 0 0 1 209.1 75.2 A 20.224 20.224 0 0 1 204.792 74.765 A 14.284 14.284 0 0 1 199.6 72.55 A 17.914 17.914 0 0 1 194.744 67.422 A 22.466 22.466 0 0 1 193.5 65.2 L 192.9 65.2 L 192.9 94 L 182 94 Z M 217.5 52.4 L 217.5 44 Q 217.5 37.7 214.15 33.9 A 10.864 10.864 0 0 0 208.197 30.471 A 16.469 16.469 0 0 0 204.6 30.1 A 17.024 17.024 0 0 0 201.374 30.397 A 14.888 14.888 0 0 0 200.1 30.7 A 11.743 11.743 0 0 0 197.449 31.809 A 10.42 10.42 0 0 0 196.4 32.5 Q 194.8 33.7 193.85 35.45 A 7.653 7.653 0 0 0 193.057 37.757 A 10.358 10.358 0 0 0 192.9 39.6 L 192.9 56.8 Q 192.9 59.2 193.85 60.95 Q 194.8 62.7 196.4 63.9 A 10.96 10.96 0 0 0 199.33 65.454 A 12.841 12.841 0 0 0 200.1 65.7 A 15.804 15.804 0 0 0 203.565 66.271 A 18.447 18.447 0 0 0 204.6 66.3 A 16.161 16.161 0 0 0 208.521 65.852 A 10.788 10.788 0 0 0 214.15 62.5 Q 217.5 58.7 217.5 52.4 Z M 31.2 74.6 L 13.3 74.6 A 7.547 7.547 0 0 0 11.258 75.976 Q 9.5 77.679 9.5 80.4 Q 9.5 83.3 11.95 85.4 Q 14.4 87.5 20.1 87.5 L 28.2 87.5 A 33.449 33.449 0 0 0 31.622 87.337 Q 35.102 86.978 37.322 85.828 A 9.427 9.427 0 0 0 37.65 85.65 A 7.197 7.197 0 0 0 39.467 84.221 Q 40.877 82.65 40.9 80.375 A 7.484 7.484 0 0 0 40.9 80.3 A 5.165 5.165 0 0 0 40.454 78.126 Q 39.965 77.057 38.939 76.256 A 6.382 6.382 0 0 0 38.8 76.15 Q 37.104 74.898 33.19 74.657 A 32.496 32.496 0 0 0 31.2 74.6 Z M 34 40.6 L 34 37.9 A 11.416 11.416 0 0 0 33.649 34.989 A 8.206 8.206 0 0 0 31.5 31.2 A 7.624 7.624 0 0 0 28.66 29.448 Q 27.452 29.01 25.957 28.828 A 18.766 18.766 0 0 0 23.7 28.7 Q 20.391 28.7 18.173 29.675 A 7.364 7.364 0 0 0 15.9 31.2 A 8.351 8.351 0 0 0 13.598 35.672 A 11.995 11.995 0 0 0 13.4 37.9 L 13.4 40.6 A 11.416 11.416 0 0 0 13.752 43.511 A 8.206 8.206 0 0 0 15.9 47.3 A 7.624 7.624 0 0 0 18.741 49.052 Q 19.949 49.49 21.444 49.672 A 18.766 18.766 0 0 0 23.7 49.8 Q 27.01 49.8 29.227 48.825 A 7.364 7.364 0 0 0 31.5 47.3 A 8.351 8.351 0 0 0 33.803 42.828 A 11.995 11.995 0 0 0 34 40.6 Z" vector-effect="non-scaling-stroke"/></g></svg>